<mxfile host="app.diagrams.net" modified="2021-04-01T07:12:21.922Z" agent="5.0 (Windows NT 10.0; Win64; x64) AppleWebKit/537.36 (KHTML, like Gecko) Chrome/89.0.4389.90 Safari/537.36 Edg/89.0.774.63" etag="oIOYNqUHmlFkhStx8Iit" version="14.5.4" type="github">
  <diagram id="Yufxu-Sk5_13O0E2XVfn" name="第 1 页">
    <mxGraphModel dx="1662" dy="834" grid="1" gridSize="10" guides="1" tooltips="1" connect="1" arrows="1" fold="1" page="1" pageScale="1" pageWidth="827" pageHeight="1169" math="0" shadow="0">
      <root>
        <mxCell id="0" />
        <mxCell id="1" parent="0" />
        <mxCell id="dirOtGAneWtVXeFRAgfT-3" value="" style="edgeStyle=orthogonalEdgeStyle;rounded=0;orthogonalLoop=1;jettySize=auto;html=1;" edge="1" parent="1" source="dirOtGAneWtVXeFRAgfT-1" target="dirOtGAneWtVXeFRAgfT-2">
          <mxGeometry relative="1" as="geometry" />
        </mxCell>
        <mxCell id="dirOtGAneWtVXeFRAgfT-5" value="" style="edgeStyle=orthogonalEdgeStyle;rounded=0;orthogonalLoop=1;jettySize=auto;html=1;" edge="1" parent="1" source="dirOtGAneWtVXeFRAgfT-1" target="dirOtGAneWtVXeFRAgfT-4">
          <mxGeometry relative="1" as="geometry" />
        </mxCell>
        <mxCell id="dirOtGAneWtVXeFRAgfT-1" value="光猫" style="rounded=0;whiteSpace=wrap;html=1;" vertex="1" parent="1">
          <mxGeometry x="330" y="120" width="120" height="60" as="geometry" />
        </mxCell>
        <mxCell id="dirOtGAneWtVXeFRAgfT-2" value="旁路由" style="rounded=0;whiteSpace=wrap;html=1;" vertex="1" parent="1">
          <mxGeometry x="530" y="120" width="120" height="60" as="geometry" />
        </mxCell>
        <mxCell id="dirOtGAneWtVXeFRAgfT-7" value="" style="edgeStyle=orthogonalEdgeStyle;rounded=0;orthogonalLoop=1;jettySize=auto;html=1;" edge="1" parent="1" source="dirOtGAneWtVXeFRAgfT-4" target="dirOtGAneWtVXeFRAgfT-6">
          <mxGeometry relative="1" as="geometry" />
        </mxCell>
        <mxCell id="dirOtGAneWtVXeFRAgfT-4" value="路由（wifi）&lt;br&gt;网关设定为旁路由" style="rounded=0;whiteSpace=wrap;html=1;" vertex="1" parent="1">
          <mxGeometry x="330" y="260" width="120" height="60" as="geometry" />
        </mxCell>
        <mxCell id="dirOtGAneWtVXeFRAgfT-6" value="其他设备&amp;nbsp;" style="rounded=0;whiteSpace=wrap;html=1;" vertex="1" parent="1">
          <mxGeometry x="330" y="400" width="120" height="60" as="geometry" />
        </mxCell>
      </root>
    </mxGraphModel>
  </diagram>
</mxfile>
